<svg width="123" height="33" viewBox="0 0 123 33" fill="none" xmlns="http://www.w3.org/2000/svg">
<rect x="1.16699" y="0.5" width="121" height="32" rx="16" fill="#1A1A1A"/>
<rect x="1.16699" y="0.5" width="121" height="32" rx="16" stroke="#262626"/>
<g clip-path="url(#clip0_139_6664)">
<g clip-path="url(#clip1_139_6664)">
<path d="M24.6789 23.9597C21.6807 23.9597 18.6833 23.9597 15.6851 23.9597C15.3819 23.9597 15.2418 24.0984 15.2418 24.3977C15.2418 24.4752 15.2457 24.5527 15.241 24.6295C15.2347 24.7225 15.2252 24.8155 15.2079 24.9062C15.1434 25.2372 14.8261 25.5023 14.4466 25.4984C14.0655 25.4946 13.7498 25.2116 13.6923 24.8481C13.6789 24.7628 13.6718 24.6752 13.6718 24.5891C13.671 22.8279 13.6592 21.0659 13.6757 19.3046C13.6852 18.2783 14.0647 17.3853 14.7922 16.6419C15.2339 16.1907 15.7591 15.8698 16.3598 15.6651C16.8322 15.5046 17.3204 15.4558 17.818 15.4558C22.4295 15.4574 27.0409 15.4535 31.6524 15.4589C33.0035 15.4605 34.0979 15.9969 34.9089 17.0636C35.3073 17.5884 35.545 18.1845 35.6261 18.8357C35.6537 19.055 35.6655 19.2783 35.6663 19.5C35.6694 21.2101 35.6687 22.9202 35.6679 24.6302C35.6679 24.8977 35.601 25.1411 35.3773 25.3178C35.1411 25.5046 34.8774 25.5535 34.5963 25.4395C34.327 25.3295 34.157 25.1271 34.1184 24.838C34.0987 24.6922 34.1011 24.5426 34.0971 24.3953C34.0908 24.1574 33.9908 24.0139 33.7908 23.9698C33.7468 23.9597 33.7003 23.9605 33.6546 23.9605C30.6635 23.9605 27.6724 23.9605 24.6805 23.9605L24.6789 23.9597Z" fill="white"/>
<path d="M24.569 8.5C26.5137 8.5 28.4577 8.5 30.4016 8.5C31.0528 8.5 31.6614 8.64341 32.1865 9.03953C32.8621 9.54884 33.2565 10.2194 33.2896 11.0612C33.3179 11.7752 33.3053 12.4907 33.3085 13.2054C33.3109 13.6659 33.3085 14.1264 33.3085 14.5868C33.3085 14.6279 33.3061 14.6713 33.2951 14.7109C33.2613 14.8357 33.1928 14.8853 33.0636 14.8612C32.9227 14.8349 32.7865 14.7783 32.6456 14.7628C32.3141 14.7271 31.9818 14.7023 31.6488 14.6853C31.4267 14.6736 31.3582 14.6341 31.3267 14.4194C31.226 13.7388 30.5859 13.1264 29.767 13.1357C28.8537 13.1457 27.9404 13.138 27.0278 13.138C26.3484 13.138 25.7681 13.5364 25.5374 14.1643C25.5043 14.2543 25.4917 14.3519 25.4744 14.4465C25.4421 14.6163 25.3784 14.6798 25.2067 14.6822C24.8469 14.686 24.4863 14.686 24.1265 14.6822C23.9611 14.6806 23.8958 14.6163 23.8659 14.4279C23.8241 14.1636 23.7202 13.9279 23.5501 13.7209C23.2423 13.3457 22.8439 13.1419 22.3526 13.1395C21.4101 13.1349 20.4677 13.1372 19.5244 13.1388C18.7324 13.1395 18.1127 13.7488 18.012 14.4178C17.9797 14.6341 17.9143 14.6721 17.6923 14.686C17.3246 14.7101 16.9569 14.7442 16.59 14.7829C16.4774 14.7946 16.3696 14.8426 16.2578 14.8612C16.1373 14.8806 16.0814 14.8403 16.0475 14.724C16.0341 14.6783 16.0278 14.6295 16.0278 14.5814C16.0271 13.4767 16.0121 12.3721 16.031 11.2674C16.0507 10.1116 16.5932 9.26202 17.6545 8.74806C18.0749 8.54574 18.5308 8.5 18.9922 8.5C20.8511 8.5 22.71 8.5 24.569 8.5Z" fill="white"/>
</g>
</g>
<path d="M42.139 21.182C41.5463 21.182 41.019 21.049 40.557 20.783C40.0997 20.5123 39.7403 20.153 39.479 19.705C39.2177 19.2523 39.087 18.7507 39.087 18.2H40.263C40.263 18.5313 40.34 18.8347 40.494 19.11C40.648 19.3807 40.865 19.5977 41.145 19.761C41.425 19.9243 41.7563 20.006 42.139 20.006C42.4703 20.006 42.7783 19.9243 43.063 19.761C43.3523 19.5977 43.5857 19.3807 43.763 19.11C43.9403 18.8347 44.029 18.5313 44.029 18.2C44.029 17.7847 43.9217 17.4393 43.707 17.164C43.497 16.884 43.203 16.6763 42.825 16.541C42.4517 16.401 42.0247 16.331 41.544 16.331V15.386C42.2067 15.386 42.7363 15.2483 43.133 14.973C43.5343 14.6977 43.735 14.2917 43.735 13.755C43.735 13.4703 43.658 13.209 43.504 12.971C43.35 12.733 43.147 12.544 42.895 12.404C42.6477 12.2593 42.3817 12.187 42.097 12.187C41.8077 12.187 41.53 12.2593 41.264 12.404C40.998 12.544 40.781 12.733 40.613 12.971C40.445 13.209 40.361 13.4703 40.361 13.755H39.185C39.185 13.377 39.262 13.0223 39.416 12.691C39.5747 12.3597 39.7893 12.068 40.06 11.816C40.3353 11.564 40.6457 11.368 40.991 11.228C41.3363 11.0833 41.7003 11.011 42.083 11.011C42.5823 11.011 43.0467 11.1347 43.476 11.382C43.9053 11.6293 44.2507 11.9607 44.512 12.376C44.778 12.7913 44.911 13.251 44.911 13.755C44.911 14.2077 44.7967 14.6253 44.568 15.008C44.3393 15.3907 44.029 15.659 43.637 15.813C43.9777 15.9297 44.2647 16.1117 44.498 16.359C44.7313 16.6017 44.9063 16.8817 45.023 17.199C45.1443 17.5163 45.205 17.85 45.205 18.2C45.205 18.746 45.0627 19.2453 44.778 19.698C44.498 20.1507 44.1247 20.5123 43.658 20.783C43.196 21.049 42.6897 21.182 42.139 21.182ZM46.466 16.212H50.946V17.388H46.466V16.212ZM52.632 21V11.2H56.013C56.4983 11.2 56.9393 11.3003 57.336 11.501C57.7373 11.697 58.0547 11.984 58.288 12.362C58.5213 12.74 58.638 13.1927 58.638 13.72C58.638 14.0047 58.589 14.28 58.491 14.546C58.3977 14.8073 58.267 15.0337 58.099 15.225C57.9357 15.4117 57.749 15.5377 57.539 15.603C57.833 15.6777 58.0827 15.8107 58.288 16.002C58.4933 16.1887 58.659 16.408 58.785 16.66C58.9157 16.912 59.009 17.1757 59.065 17.451C59.121 17.7263 59.149 17.9923 59.149 18.249C59.149 18.7903 59.0253 19.2687 58.778 19.684C58.5353 20.0947 58.2087 20.4167 57.798 20.65C57.3873 20.8833 56.9347 21 56.44 21H52.632ZM53.808 19.964H56.335C56.657 19.964 56.9487 19.8823 57.21 19.719C57.476 19.551 57.6883 19.3223 57.847 19.033C58.0057 18.7437 58.085 18.417 58.085 18.053C58.085 17.731 58.0057 17.4277 57.847 17.143C57.6883 16.8537 57.476 16.6203 57.21 16.443C56.9487 16.2657 56.657 16.177 56.335 16.177H53.808V19.964ZM53.808 15.162H55.901C56.3303 15.162 56.6967 15.036 57 14.784C57.308 14.5273 57.462 14.1703 57.462 13.713C57.462 13.2183 57.308 12.8497 57 12.607C56.6967 12.3597 56.3303 12.236 55.901 12.236H53.808V15.162ZM63.3272 21.182C62.6832 21.182 62.0952 21.0163 61.5632 20.685C61.0359 20.3537 60.6136 19.9103 60.2962 19.355C59.9836 18.795 59.8272 18.1767 59.8272 17.5C59.8272 16.9867 59.9182 16.5083 60.1002 16.065C60.2822 15.617 60.5319 15.225 60.8492 14.889C61.1712 14.5483 61.5446 14.2823 61.9692 14.091C62.3939 13.8997 62.8466 13.804 63.3272 13.804C63.8546 13.804 64.3376 13.9113 64.7762 14.126C65.2196 14.336 65.5976 14.63 65.9102 15.008C66.2276 15.386 66.4632 15.8247 66.6172 16.324C66.7759 16.8233 66.8342 17.3577 66.7922 17.927H61.0802C61.1362 18.3237 61.2669 18.6783 61.4722 18.991C61.6776 19.299 61.9389 19.544 62.2562 19.726C62.5782 19.908 62.9352 20.0013 63.3272 20.006C63.7472 20.006 64.1276 19.8987 64.4682 19.684C64.8089 19.4647 65.0842 19.166 65.2942 18.788L66.4912 19.068C66.2112 19.6887 65.7889 20.1973 65.2242 20.594C64.6596 20.986 64.0272 21.182 63.3272 21.182ZM61.0452 17.003H65.6092C65.5719 16.611 65.4459 16.254 65.2312 15.932C65.0166 15.6053 64.7436 15.344 64.4122 15.148C64.0809 14.952 63.7192 14.854 63.3272 14.854C62.9352 14.854 62.5759 14.9497 62.2492 15.141C61.9226 15.3323 61.6519 15.5913 61.4372 15.918C61.2272 16.24 61.0966 16.6017 61.0452 17.003ZM73.5658 10.5H74.7418V21H73.5658V19.81C73.3278 20.2207 73.0082 20.552 72.6068 20.804C72.2055 21.056 71.7342 21.182 71.1928 21.182C70.6842 21.182 70.2082 21.0863 69.7648 20.895C69.3215 20.7037 68.9295 20.44 68.5888 20.104C68.2528 19.7633 67.9892 19.3713 67.7978 18.928C67.6065 18.4847 67.5108 18.0087 67.5108 17.5C67.5108 16.9913 67.6065 16.5153 67.7978 16.072C67.9892 15.624 68.2528 15.232 68.5888 14.896C68.9295 14.5553 69.3215 14.2893 69.7648 14.098C70.2082 13.9067 70.6842 13.811 71.1928 13.811C71.7342 13.811 72.2055 13.937 72.6068 14.189C73.0082 14.441 73.3278 14.7723 73.5658 15.183V10.5ZM71.2068 20.041C71.6688 20.041 72.0678 19.929 72.4038 19.705C72.7445 19.4763 73.0058 19.1683 73.1878 18.781C73.3745 18.3937 73.4678 17.9667 73.4678 17.5C73.4678 17.024 73.3745 16.5947 73.1878 16.212C73.0012 15.8247 72.7375 15.519 72.3968 15.295C72.0608 15.0663 71.6642 14.952 71.2068 14.952C70.7448 14.952 70.3248 15.0663 69.9468 15.295C69.5735 15.5237 69.2748 15.8317 69.0508 16.219C68.8268 16.6017 68.7148 17.0287 68.7148 17.5C68.7148 17.9713 68.8292 18.4007 69.0578 18.788C69.2865 19.1707 69.5898 19.4763 69.9678 19.705C70.3458 19.929 70.7588 20.041 71.2068 20.041ZM76.4211 21V14H77.5971V14.875C77.8444 14.5483 78.1571 14.2893 78.5351 14.098C78.9131 13.902 79.3237 13.804 79.7671 13.804C80.0377 13.804 80.2991 13.839 80.5511 13.909L80.0751 15.085C79.8837 15.0243 79.6971 14.994 79.5151 14.994C79.1651 14.994 78.8431 15.0803 78.5491 15.253C78.2597 15.421 78.0287 15.6497 77.8561 15.939C77.6834 16.2283 77.5971 16.5503 77.5971 16.905V21H76.4211ZM84.1358 21.182C83.4918 21.182 82.9038 21.0163 82.3718 20.685C81.8445 20.3537 81.4222 19.9103 81.1048 19.355C80.7922 18.795 80.6358 18.1767 80.6358 17.5C80.6358 16.9867 80.7268 16.5083 80.9088 16.065C81.0908 15.617 81.3405 15.225 81.6578 14.889C81.9798 14.5483 82.3532 14.2823 82.7778 14.091C83.2025 13.8997 83.6552 13.804 84.1358 13.804C84.7798 13.804 85.3655 13.9697 85.8928 14.301C86.4248 14.6323 86.8472 15.078 87.1598 15.638C87.4772 16.198 87.6358 16.8187 87.6358 17.5C87.6358 18.0087 87.5448 18.4847 87.3628 18.928C87.1808 19.3713 86.9288 19.7633 86.6068 20.104C86.2895 20.44 85.9185 20.7037 85.4938 20.895C85.0738 21.0863 84.6212 21.182 84.1358 21.182ZM84.1358 20.006C84.5745 20.006 84.9688 19.8917 85.3188 19.663C85.6735 19.4297 85.9512 19.124 86.1518 18.746C86.3572 18.3633 86.4598 17.948 86.4598 17.5C86.4598 17.0427 86.3548 16.6227 86.1448 16.24C85.9395 15.8573 85.6618 15.5517 85.3118 15.323C84.9618 15.0943 84.5698 14.98 84.1358 14.98C83.6972 14.98 83.3028 15.0967 82.9528 15.33C82.6028 15.5587 82.3252 15.8643 82.1198 16.247C81.9145 16.6297 81.8118 17.0473 81.8118 17.5C81.8118 17.9667 81.9168 18.3913 82.1268 18.774C82.3368 19.152 82.6192 19.453 82.9738 19.677C83.3285 19.8963 83.7158 20.006 84.1358 20.006ZM91.8331 21.182C91.1891 21.182 90.6011 21.0163 90.0691 20.685C89.5418 20.3537 89.1194 19.9103 88.8021 19.355C88.4894 18.795 88.3331 18.1767 88.3331 17.5C88.3331 16.9867 88.4241 16.5083 88.6061 16.065C88.7881 15.617 89.0378 15.225 89.3551 14.889C89.6771 14.5483 90.0504 14.2823 90.4751 14.091C90.8998 13.8997 91.3524 13.804 91.8331 13.804C92.4771 13.804 93.0628 13.9697 93.5901 14.301C94.1221 14.6323 94.5444 15.078 94.8571 15.638C95.1744 16.198 95.3331 16.8187 95.3331 17.5C95.3331 18.0087 95.2421 18.4847 95.0601 18.928C94.8781 19.3713 94.6261 19.7633 94.3041 20.104C93.9868 20.44 93.6158 20.7037 93.1911 20.895C92.7711 21.0863 92.3184 21.182 91.8331 21.182ZM91.8331 20.006C92.2718 20.006 92.6661 19.8917 93.0161 19.663C93.3708 19.4297 93.6484 19.124 93.8491 18.746C94.0544 18.3633 94.1571 17.948 94.1571 17.5C94.1571 17.0427 94.0521 16.6227 93.8421 16.24C93.6368 15.8573 93.3591 15.5517 93.0091 15.323C92.6591 15.0943 92.2671 14.98 91.8331 14.98C91.3944 14.98 91.0001 15.0967 90.6501 15.33C90.3001 15.5587 90.0224 15.8643 89.8171 16.247C89.6118 16.6297 89.5091 17.0473 89.5091 17.5C89.5091 17.9667 89.6141 18.3913 89.8241 18.774C90.0341 19.152 90.3164 19.453 90.6711 19.677C91.0258 19.8963 91.4131 20.006 91.8331 20.006ZM96.4914 21V14H97.6674V14.875C97.9147 14.5483 98.225 14.2893 98.5984 14.098C98.9764 13.902 99.387 13.804 99.8304 13.804C100.348 13.804 100.822 13.93 101.251 14.182C101.681 14.434 102.019 14.7677 102.266 15.183C102.514 14.7677 102.85 14.434 103.274 14.182C103.704 13.93 104.175 13.804 104.688 13.804C105.216 13.804 105.694 13.9323 106.123 14.189C106.553 14.441 106.893 14.7817 107.145 15.211C107.402 15.6403 107.53 16.1187 107.53 16.646V21H106.354V16.926C106.354 16.5807 106.27 16.261 106.102 15.967C105.934 15.673 105.708 15.4373 105.423 15.26C105.139 15.0827 104.824 14.994 104.478 14.994C104.133 14.994 103.818 15.078 103.533 15.246C103.249 15.4093 103.022 15.638 102.854 15.932C102.686 16.2213 102.602 16.5527 102.602 16.926V21H101.426V16.926C101.426 16.5527 101.342 16.2213 101.174 15.932C101.006 15.638 100.778 15.4093 100.488 15.246C100.204 15.078 99.8887 14.994 99.5434 14.994C99.2027 14.994 98.8877 15.0827 98.5984 15.26C98.3137 15.4373 98.0874 15.673 97.9194 15.967C97.7514 16.261 97.6674 16.5807 97.6674 16.926V21H96.4914Z" fill="white"/>
<defs>
<clipPath id="clip0_139_6664">
<rect width="20" height="20" fill="white" transform="translate(14.667 6.5)"/>
</clipPath>
<clipPath id="clip1_139_6664">
<rect width="22" height="17" fill="white" transform="translate(13.667 8.5)"/>
</clipPath>
</defs>
</svg>
