<svg width="128" height="33" viewBox="0 0 128 33" fill="none" xmlns="http://www.w3.org/2000/svg">
<rect x="0.833984" y="0.5" width="126" height="32" rx="16" fill="#1A1A1A"/>
<rect x="0.833984" y="0.5" width="126" height="32" rx="16" stroke="#262626"/>
<g clip-path="url(#clip0_139_6645)">
<g clip-path="url(#clip1_139_6645)">
<path d="M14.6034 20.2616H24.444V22.0697H30.5955V20.2655H33.0394C33.1976 22.4158 33.2101 24.3304 31.0046 25.7897C30.9777 25.8075 30.956 25.8318 30.8963 25.885C31.1675 26.1103 31.4348 26.3329 31.6995 26.5529C31.3422 26.8945 31.0552 27.169 30.7262 27.4842C30.4359 27.1848 30.1219 26.8373 29.7797 26.5207C29.6793 26.4275 29.5013 26.3894 29.3555 26.3802C29.117 26.3657 28.8753 26.4045 28.635 26.4052C25.4397 26.4071 22.2445 26.4065 19.0486 26.4065C18.8955 26.4065 18.732 26.436 18.5908 26.3933C18.1645 26.2653 17.8939 26.4629 17.6404 26.7684C17.4243 27.0284 17.178 27.2629 16.9528 27.5007C16.6487 27.1808 16.3735 26.8918 16.0687 26.5707C16.273 26.39 16.5324 26.1602 16.824 25.9014C16.623 25.7576 16.4726 25.6577 16.3301 25.5474C15.2622 24.7244 14.6849 23.6329 14.6094 22.2924C14.5719 21.6284 14.6028 20.9604 14.6028 20.2616H14.6034Z" fill="white"/>
<path d="M14.6095 15.2871C14.6043 15.1682 14.5951 15.0612 14.5951 14.9541C14.5944 13.2137 14.5925 11.4738 14.5951 9.73336C14.5977 7.82081 15.9251 6.48622 17.835 6.50001C18.476 6.50461 19.1367 6.49148 19.7528 6.63663C20.8457 6.89474 21.534 7.65267 21.8663 8.7206C21.9307 8.92814 22.0141 9.02863 22.242 9.09037C23.528 9.43912 24.4304 10.641 24.4468 11.9822C24.4495 12.1983 24.4468 12.4144 24.4468 12.6488H18.3598C18.0695 11.1139 18.9036 9.52976 20.6473 9.0352C20.4897 8.35017 19.8152 7.7722 19.1072 7.74725C18.5719 7.7282 18.0347 7.72623 17.4994 7.74725C16.5766 7.78337 15.8344 8.63062 15.8305 9.64666C15.8239 11.3977 15.8285 13.1493 15.8285 14.9003C15.8285 15.0198 15.8285 15.1393 15.8285 15.2865H14.6082L14.6095 15.2871Z" fill="white"/>
<path d="M24.4266 19.0327C24.2979 19.0327 24.2013 19.0327 24.1048 19.0327C20.9772 19.0327 17.8489 19.0334 14.7213 19.0321C14.0481 19.0321 13.564 18.7135 13.3939 18.1697C13.1378 17.3514 13.7177 16.5632 14.6018 16.5514C15.5423 16.5389 16.4828 16.5481 17.4233 16.5481C19.6327 16.5481 21.8415 16.5481 24.0509 16.5481C24.1691 16.5481 24.2873 16.5481 24.4266 16.5481V19.0321V19.0327Z" fill="white"/>
<path d="M29.3577 20.8711H25.6974C25.6915 20.7555 25.6816 20.6504 25.6816 20.5453C25.6803 19.2771 25.6803 18.0082 25.6816 16.7399C25.6823 15.8224 26.1834 15.318 27.097 15.314C27.4359 15.3127 27.7748 15.3055 28.1137 15.316C28.8749 15.3403 29.3721 15.8519 29.3741 16.6151C29.378 17.9385 29.3754 19.2613 29.3741 20.5847C29.3741 20.6708 29.3649 20.7561 29.3577 20.8711Z" fill="white"/>
<path d="M30.6172 19.0209V16.5481C31.2122 16.5481 31.7987 16.5462 32.3846 16.5488C32.69 16.5501 33.002 16.5251 33.3008 16.5744C33.953 16.6821 34.3773 17.2161 34.3503 17.8394C34.3241 18.4508 33.8729 18.9756 33.2325 19.0091C32.3734 19.0544 31.5104 19.0203 30.6178 19.0203L30.6172 19.0209Z" fill="white"/>
</g>
</g>
<path d="M38.894 21V19.957C39.2533 19.635 39.657 19.2757 40.105 18.879C40.553 18.4777 40.9987 18.06 41.442 17.626C41.89 17.1873 42.3007 16.7533 42.674 16.324C43.0473 15.8947 43.3483 15.4887 43.577 15.106C43.8057 14.7187 43.92 14.3803 43.92 14.091C43.92 13.7457 43.836 13.4307 43.668 13.146C43.5 12.8567 43.2737 12.6257 42.989 12.453C42.709 12.2803 42.3963 12.194 42.051 12.194C41.7057 12.194 41.3883 12.2803 41.099 12.453C40.8143 12.6257 40.5857 12.8567 40.413 13.146C40.245 13.4307 40.161 13.7457 40.161 14.091H38.985C38.985 13.517 39.125 12.999 39.405 12.537C39.685 12.0703 40.056 11.7017 40.518 11.431C40.98 11.1557 41.491 11.018 42.051 11.018C42.611 11.018 43.1197 11.1557 43.577 11.431C44.039 11.7063 44.4077 12.0773 44.683 12.544C44.9583 13.006 45.096 13.5217 45.096 14.091C45.096 14.4177 45.0167 14.77 44.858 15.148C44.6993 15.5213 44.4823 15.9063 44.207 16.303C43.9317 16.6997 43.619 17.101 43.269 17.507C42.919 17.9083 42.5503 18.305 42.163 18.697C41.7757 19.089 41.3907 19.4647 41.008 19.824H45.222V21H38.894ZM46.8986 16.212H51.3786V17.388H46.8986V16.212ZM53.0646 21V11.2H56.4456C56.9309 11.2 57.3719 11.3003 57.7686 11.501C58.1699 11.697 58.4873 11.984 58.7206 12.362C58.9539 12.74 59.0706 13.1927 59.0706 13.72C59.0706 14.0047 59.0216 14.28 58.9236 14.546C58.8303 14.8073 58.6996 15.0337 58.5316 15.225C58.3683 15.4117 58.1816 15.5377 57.9716 15.603C58.2656 15.6777 58.5153 15.8107 58.7206 16.002C58.9259 16.1887 59.0916 16.408 59.2176 16.66C59.3483 16.912 59.4416 17.1757 59.4976 17.451C59.5536 17.7263 59.5816 17.9923 59.5816 18.249C59.5816 18.7903 59.4579 19.2687 59.2106 19.684C58.9679 20.0947 58.6413 20.4167 58.2306 20.65C57.8199 20.8833 57.3673 21 56.8726 21H53.0646ZM54.2406 19.964H56.7676C57.0896 19.964 57.3813 19.8823 57.6426 19.719C57.9086 19.551 58.1209 19.3223 58.2796 19.033C58.4383 18.7437 58.5176 18.417 58.5176 18.053C58.5176 17.731 58.4383 17.4277 58.2796 17.143C58.1209 16.8537 57.9086 16.6203 57.6426 16.443C57.3813 16.2657 57.0896 16.177 56.7676 16.177H54.2406V19.964ZM54.2406 15.162H56.3336C56.7629 15.162 57.1293 15.036 57.4326 14.784C57.7406 14.5273 57.8946 14.1703 57.8946 13.713C57.8946 13.2183 57.7406 12.8497 57.4326 12.607C57.1293 12.3597 56.7629 12.236 56.3336 12.236H54.2406V15.162ZM66.3078 14H67.4838V21H66.3078L66.2588 19.817C66.0395 20.223 65.7362 20.552 65.3488 20.804C64.9662 21.056 64.5088 21.182 63.9768 21.182C63.4635 21.182 62.9828 21.0863 62.5348 20.895C62.0868 20.699 61.6902 20.4307 61.3448 20.09C61.0042 19.7447 60.7382 19.348 60.5468 18.9C60.3555 18.452 60.2598 17.969 60.2598 17.451C60.2598 16.9517 60.3532 16.4803 60.5398 16.037C60.7265 15.5937 60.9855 15.2063 61.3168 14.875C61.6528 14.539 62.0402 14.2777 62.4788 14.091C62.9175 13.8997 63.3888 13.804 63.8928 13.804C64.4435 13.804 64.9265 13.9347 65.3418 14.196C65.7572 14.4527 66.0932 14.7863 66.3498 15.197L66.3078 14ZM63.9558 20.041C64.4178 20.041 64.8168 19.929 65.1528 19.705C65.4935 19.4763 65.7548 19.1683 65.9368 18.781C66.1235 18.3937 66.2168 17.9667 66.2168 17.5C66.2168 17.024 66.1235 16.5947 65.9368 16.212C65.7502 15.8247 65.4865 15.519 65.1458 15.295C64.8098 15.0663 64.4132 14.952 63.9558 14.952C63.4938 14.952 63.0738 15.0663 62.6958 15.295C62.3178 15.5237 62.0168 15.8317 61.7928 16.219C61.5735 16.6017 61.4638 17.0287 61.4638 17.5C61.4638 17.9713 61.5782 18.4007 61.8068 18.788C62.0355 19.1707 62.3388 19.4763 62.7168 19.705C63.0948 19.929 63.5078 20.041 63.9558 20.041ZM72.509 15.176H70.92L70.913 21H69.737L69.744 15.176H68.54V14H69.744L69.737 11.802H70.913L70.92 14H72.509V15.176ZM79.9518 16.646V21H78.7758V16.905C78.7758 16.5503 78.6895 16.2283 78.5168 15.939C78.3442 15.6497 78.1132 15.421 77.8238 15.253C77.5345 15.0803 77.2125 14.994 76.8578 14.994C76.5078 14.994 76.1858 15.0803 75.8918 15.253C75.6025 15.421 75.3715 15.6497 75.1988 15.939C75.0262 16.2283 74.9398 16.5503 74.9398 16.905V21H73.7638V10.5H74.9398V14.875C75.1872 14.5483 75.4998 14.2893 75.8778 14.098C76.2558 13.902 76.6665 13.804 77.1098 13.804C77.6325 13.804 78.1085 13.9323 78.5378 14.189C78.9718 14.441 79.3148 14.7817 79.5668 15.211C79.8235 15.6403 79.9518 16.1187 79.9518 16.646ZM81.3517 21V14H82.5277V14.875C82.7751 14.5483 83.0877 14.2893 83.4657 14.098C83.8437 13.902 84.2544 13.804 84.6977 13.804C84.9684 13.804 85.2297 13.839 85.4817 13.909L85.0057 15.085C84.8144 15.0243 84.6277 14.994 84.4457 14.994C84.0957 14.994 83.7737 15.0803 83.4797 15.253C83.1904 15.421 82.9594 15.6497 82.7867 15.939C82.6141 16.2283 82.5277 16.5503 82.5277 16.905V21H81.3517ZM89.0665 21.182C88.4225 21.182 87.8345 21.0163 87.3025 20.685C86.7752 20.3537 86.3528 19.9103 86.0355 19.355C85.7228 18.795 85.5665 18.1767 85.5665 17.5C85.5665 16.9867 85.6575 16.5083 85.8395 16.065C86.0215 15.617 86.2712 15.225 86.5885 14.889C86.9105 14.5483 87.2838 14.2823 87.7085 14.091C88.1332 13.8997 88.5858 13.804 89.0665 13.804C89.7105 13.804 90.2962 13.9697 90.8235 14.301C91.3555 14.6323 91.7778 15.078 92.0905 15.638C92.4078 16.198 92.5665 16.8187 92.5665 17.5C92.5665 18.0087 92.4755 18.4847 92.2935 18.928C92.1115 19.3713 91.8595 19.7633 91.5375 20.104C91.2202 20.44 90.8492 20.7037 90.4245 20.895C90.0045 21.0863 89.5518 21.182 89.0665 21.182ZM89.0665 20.006C89.5052 20.006 89.8995 19.8917 90.2495 19.663C90.6042 19.4297 90.8818 19.124 91.0825 18.746C91.2878 18.3633 91.3905 17.948 91.3905 17.5C91.3905 17.0427 91.2855 16.6227 91.0755 16.24C90.8702 15.8573 90.5925 15.5517 90.2425 15.323C89.8925 15.0943 89.5005 14.98 89.0665 14.98C88.6278 14.98 88.2335 15.0967 87.8835 15.33C87.5335 15.5587 87.2558 15.8643 87.0505 16.247C86.8452 16.6297 86.7425 17.0473 86.7425 17.5C86.7425 17.9667 86.8475 18.3913 87.0575 18.774C87.2675 19.152 87.5498 19.453 87.9045 19.677C88.2592 19.8963 88.6465 20.006 89.0665 20.006ZM96.7638 21.182C96.1198 21.182 95.5318 21.0163 94.9998 20.685C94.4724 20.3537 94.0501 19.9103 93.7328 19.355C93.4201 18.795 93.2638 18.1767 93.2638 17.5C93.2638 16.9867 93.3548 16.5083 93.5368 16.065C93.7188 15.617 93.9684 15.225 94.2858 14.889C94.6078 14.5483 94.9811 14.2823 95.4058 14.091C95.8304 13.8997 96.2831 13.804 96.7638 13.804C97.4078 13.804 97.9934 13.9697 98.5208 14.301C99.0528 14.6323 99.4751 15.078 99.7878 15.638C100.105 16.198 100.264 16.8187 100.264 17.5C100.264 18.0087 100.173 18.4847 99.9908 18.928C99.8088 19.3713 99.5568 19.7633 99.2348 20.104C98.9174 20.44 98.5464 20.7037 98.1218 20.895C97.7018 21.0863 97.2491 21.182 96.7638 21.182ZM96.7638 20.006C97.2024 20.006 97.5968 19.8917 97.9468 19.663C98.3014 19.4297 98.5791 19.124 98.7798 18.746C98.9851 18.3633 99.0878 17.948 99.0878 17.5C99.0878 17.0427 98.9828 16.6227 98.7728 16.24C98.5674 15.8573 98.2898 15.5517 97.9398 15.323C97.5898 15.0943 97.1978 14.98 96.7638 14.98C96.3251 14.98 95.9308 15.0967 95.5808 15.33C95.2308 15.5587 94.9531 15.8643 94.7478 16.247C94.5424 16.6297 94.4398 17.0473 94.4398 17.5C94.4398 17.9667 94.5448 18.3913 94.7548 18.774C94.9648 19.152 95.2471 19.453 95.6018 19.677C95.9564 19.8963 96.3438 20.006 96.7638 20.006ZM101.422 21V14H102.598V14.875C102.845 14.5483 103.156 14.2893 103.529 14.098C103.907 13.902 104.318 13.804 104.761 13.804C105.279 13.804 105.753 13.93 106.182 14.182C106.611 14.434 106.95 14.7677 107.197 15.183C107.444 14.7677 107.78 14.434 108.205 14.182C108.634 13.93 109.106 13.804 109.619 13.804C110.146 13.804 110.625 13.9323 111.054 14.189C111.483 14.441 111.824 14.7817 112.076 15.211C112.333 15.6403 112.461 16.1187 112.461 16.646V21H111.285V16.926C111.285 16.5807 111.201 16.261 111.033 15.967C110.865 15.673 110.639 15.4373 110.354 15.26C110.069 15.0827 109.754 14.994 109.409 14.994C109.064 14.994 108.749 15.078 108.464 15.246C108.179 15.4093 107.953 15.638 107.785 15.932C107.617 16.2213 107.533 16.5527 107.533 16.926V21H106.357V16.926C106.357 16.5527 106.273 16.2213 106.105 15.932C105.937 15.638 105.708 15.4093 105.419 15.246C105.134 15.078 104.819 14.994 104.474 14.994C104.133 14.994 103.818 15.0827 103.529 15.26C103.244 15.4373 103.018 15.673 102.85 15.967C102.682 16.261 102.598 16.5807 102.598 16.926V21H101.422Z" fill="white"/>
<defs>
<clipPath id="clip0_139_6645">
<rect width="20" height="20" fill="white" transform="translate(14.334 6.5)"/>
</clipPath>
<clipPath id="clip1_139_6645">
<rect width="21.0171" height="21" fill="white" transform="translate(13.334 6.5)"/>
</clipPath>
</defs>
</svg>
