<svg width="54" height="14" viewBox="0 0 54 14" fill="none" xmlns="http://www.w3.org/2000/svg">
<path d="M4.792 13.208C4.12533 13.208 3.528 13.0587 3 12.76C2.472 12.456 2.01867 12.0373 1.64 11.504C1.26133 10.9707 0.973333 10.3547 0.776 9.656C0.578667 8.952 0.48 8.2 0.48 7.4C0.48 6.6 0.578667 5.848 0.776 5.144C0.973333 4.44 1.26133 3.824 1.64 3.296C2.01867 2.76267 2.472 2.34667 3 2.048C3.528 1.744 4.12533 1.592 4.792 1.592C5.45333 1.592 6.048 1.744 6.576 2.048C7.10933 2.34667 7.56 2.76267 7.928 3.296C8.30133 3.824 8.58667 4.44 8.784 5.144C8.98667 5.848 9.088 6.6 9.088 7.4C9.088 8.2 8.98667 8.952 8.784 9.656C8.58667 10.3547 8.30133 10.9707 7.928 11.504C7.56 12.0373 7.10933 12.456 6.576 12.76C6.048 13.0587 5.45333 13.208 4.792 13.208ZM4.792 11.864C5.45867 11.864 6.016 11.6587 6.464 11.248C6.91733 10.832 7.256 10.2853 7.48 9.608C7.704 8.93067 7.816 8.19467 7.816 7.4C7.816 6.56267 7.69867 5.808 7.464 5.136C7.23467 4.45867 6.89333 3.92267 6.44 3.528C5.992 3.13333 5.44267 2.936 4.792 2.936C4.28 2.936 3.832 3.056 3.448 3.296C3.06933 3.536 2.75467 3.864 2.504 4.28C2.25333 4.696 2.064 5.17333 1.936 5.712C1.81333 6.24533 1.752 6.808 1.752 7.4C1.752 8.19467 1.86667 8.93333 2.096 9.616C2.32533 10.2933 2.664 10.8373 3.112 11.248C3.56533 11.6587 4.12533 11.864 4.792 11.864ZM11.4585 13V3.144H10.2025L10.5785 1.8H12.8025V13H11.4585Z" fill="white"/>
<path d="M22.4019 13.208C21.6659 13.208 20.9939 13.0187 20.3859 12.64C19.7832 12.2613 19.3005 11.7547 18.9379 11.12C18.5805 10.48 18.4019 9.77333 18.4019 9C18.4019 8.41333 18.5059 7.86667 18.7139 7.36C18.9219 6.848 19.2072 6.4 19.5699 6.016C19.9379 5.62667 20.3645 5.32267 20.8499 5.104C21.3352 4.88533 21.8525 4.776 22.4019 4.776C23.1379 4.776 23.8072 4.96533 24.4099 5.344C25.0179 5.72267 25.5005 6.232 25.8579 6.872C26.2205 7.512 26.4019 8.22133 26.4019 9C26.4019 9.58133 26.2979 10.1253 26.0899 10.632C25.8819 11.1387 25.5939 11.5867 25.2259 11.976C24.8632 12.36 24.4392 12.6613 23.9539 12.88C23.4739 13.0987 22.9565 13.208 22.4019 13.208ZM22.4019 11.864C22.9032 11.864 23.3539 11.7333 23.7539 11.472C24.1592 11.2053 24.4765 10.856 24.7059 10.424C24.9405 9.98667 25.0579 9.512 25.0579 9C25.0579 8.47733 24.9379 7.99733 24.6979 7.56C24.4632 7.12267 24.1459 6.77333 23.7459 6.512C23.3459 6.25067 22.8979 6.12 22.4019 6.12C21.9005 6.12 21.4499 6.25333 21.0499 6.52C20.6499 6.78133 20.3325 7.13067 20.0979 7.568C19.8632 8.00533 19.7459 8.48267 19.7459 9C19.7459 9.53333 19.8659 10.0187 20.1059 10.456C20.3459 10.888 20.6685 11.232 21.0739 11.488C21.4792 11.7387 21.9219 11.864 22.4019 11.864ZM29.651 3.024V5H31.995V6.344H29.651V13H28.307V6.344H27.275V5H28.307V3.024C28.307 2.61333 28.4057 2.24267 28.603 1.912C28.8057 1.576 29.075 1.30933 29.411 1.112C29.7523 0.909333 30.1257 0.808 30.531 0.808C30.8297 0.808 31.1203 0.869333 31.403 0.992C31.6857 1.10933 31.9363 1.28533 32.155 1.52L31.195 2.472C31.1203 2.37067 31.0217 2.29333 30.899 2.24C30.7817 2.18133 30.659 2.152 30.531 2.152C30.291 2.152 30.083 2.23733 29.907 2.408C29.7363 2.57867 29.651 2.784 29.651 3.024ZM40.4675 13.208C39.7582 13.208 39.1102 13.032 38.5235 12.68C37.9368 12.328 37.4675 11.8587 37.1155 11.272C36.7635 10.68 36.5875 10.0267 36.5875 9.312C36.5875 8.912 36.6328 8.56267 36.7235 8.264C36.8195 7.96533 36.9608 7.64267 37.1475 7.296L40.3155 1.8H41.8755L39.6115 5.728C40.0702 5.584 40.5262 5.53333 40.9795 5.576C41.4328 5.61867 41.8622 5.74133 42.2675 5.944C42.6782 6.14667 43.0408 6.41333 43.3555 6.744C43.6702 7.07467 43.9182 7.45867 44.0995 7.896C44.2808 8.328 44.3715 8.8 44.3715 9.312C44.3715 9.85067 44.2675 10.3547 44.0595 10.824C43.8568 11.2933 43.5768 11.7067 43.2195 12.064C42.8675 12.4213 42.4542 12.7013 41.9795 12.904C41.5048 13.1067 41.0008 13.208 40.4675 13.208ZM40.4675 11.864C40.9582 11.864 41.3955 11.744 41.7795 11.504C42.1688 11.264 42.4728 10.9493 42.6915 10.56C42.9155 10.1707 43.0275 9.75467 43.0275 9.312C43.0275 8.848 42.9128 8.424 42.6835 8.04C42.4595 7.656 42.1528 7.34933 41.7635 7.12C41.3795 6.88533 40.9528 6.768 40.4835 6.768C39.9928 6.768 39.5555 6.888 39.1715 7.128C38.7875 7.368 38.4835 7.68 38.2595 8.064C38.0408 8.448 37.9315 8.864 37.9315 9.312C37.9315 9.79733 38.0488 10.232 38.2835 10.616C38.5182 11 38.8275 11.304 39.2115 11.528C39.6008 11.752 40.0195 11.864 40.4675 11.864ZM49.6358 13.208C48.9691 13.208 48.3718 13.0587 47.8438 12.76C47.3158 12.456 46.8624 12.0373 46.4838 11.504C46.1051 10.9707 45.8171 10.3547 45.6198 9.656C45.4224 8.952 45.3238 8.2 45.3238 7.4C45.3238 6.6 45.4224 5.848 45.6198 5.144C45.8171 4.44 46.1051 3.824 46.4838 3.296C46.8624 2.76267 47.3158 2.34667 47.8438 2.048C48.3718 1.744 48.9691 1.592 49.6358 1.592C50.2971 1.592 50.8918 1.744 51.4198 2.048C51.9531 2.34667 52.4038 2.76267 52.7718 3.296C53.1451 3.824 53.4304 4.44 53.6278 5.144C53.8304 5.848 53.9318 6.6 53.9318 7.4C53.9318 8.2 53.8304 8.952 53.6278 9.656C53.4304 10.3547 53.1451 10.9707 52.7718 11.504C52.4038 12.0373 51.9531 12.456 51.4198 12.76C50.8918 13.0587 50.2971 13.208 49.6358 13.208ZM49.6358 11.864C50.3024 11.864 50.8598 11.6587 51.3078 11.248C51.7611 10.832 52.0998 10.2853 52.3238 9.608C52.5478 8.93067 52.6598 8.19467 52.6598 7.4C52.6598 6.56267 52.5424 5.808 52.3078 5.136C52.0784 4.45867 51.7371 3.92267 51.2838 3.528C50.8358 3.13333 50.2864 2.936 49.6358 2.936C49.1238 2.936 48.6758 3.056 48.2918 3.296C47.9131 3.536 47.5984 3.864 47.3478 4.28C47.0971 4.696 46.9078 5.17333 46.7798 5.712C46.6571 6.24533 46.5958 6.808 46.5958 7.4C46.5958 8.19467 46.7104 8.93333 46.9398 9.616C47.1691 10.2933 47.5078 10.8373 47.9558 11.248C48.4091 11.6587 48.9691 11.864 49.6358 11.864Z" fill="#999999"/>
</svg>
