<svg width="50" height="14" viewBox="0 0 50 14" fill="none" xmlns="http://www.w3.org/2000/svg">
<path d="M4.792 13.208C4.12533 13.208 3.528 13.0587 3 12.76C2.472 12.456 2.01867 12.0373 1.64 11.504C1.26133 10.9707 0.973333 10.3547 0.776 9.656C0.578667 8.952 0.48 8.2 0.48 7.4C0.48 6.6 0.578667 5.848 0.776 5.144C0.973333 4.44 1.26133 3.824 1.64 3.296C2.01867 2.76267 2.472 2.34667 3 2.048C3.528 1.744 4.12533 1.592 4.792 1.592C5.45333 1.592 6.048 1.744 6.576 2.048C7.10933 2.34667 7.56 2.76267 7.928 3.296C8.30133 3.824 8.58667 4.44 8.784 5.144C8.98667 5.848 9.088 6.6 9.088 7.4C9.088 8.2 8.98667 8.952 8.784 9.656C8.58667 10.3547 8.30133 10.9707 7.928 11.504C7.56 12.0373 7.10933 12.456 6.576 12.76C6.048 13.0587 5.45333 13.208 4.792 13.208ZM4.792 11.864C5.45867 11.864 6.016 11.6587 6.464 11.248C6.91733 10.832 7.256 10.2853 7.48 9.608C7.704 8.93067 7.816 8.19467 7.816 7.4C7.816 6.56267 7.69867 5.808 7.464 5.136C7.23467 4.45867 6.89333 3.92267 6.44 3.528C5.992 3.13333 5.44267 2.936 4.792 2.936C4.28 2.936 3.832 3.056 3.448 3.296C3.06933 3.536 2.75467 3.864 2.504 4.28C2.25333 4.696 2.064 5.17333 1.936 5.712C1.81333 6.24533 1.752 6.808 1.752 7.4C1.752 8.19467 1.86667 8.93333 2.096 9.616C2.32533 10.2933 2.664 10.8373 3.112 11.248C3.56533 11.6587 4.12533 11.864 4.792 11.864ZM11.4585 13V3.144H10.2025L10.5785 1.8H12.8025V13H11.4585Z" fill="white"/>
<path d="M22.4019 13.208C21.6659 13.208 20.9939 13.0187 20.3859 12.64C19.7832 12.2613 19.3005 11.7547 18.9379 11.12C18.5805 10.48 18.4019 9.77333 18.4019 9C18.4019 8.41333 18.5059 7.86667 18.7139 7.36C18.9219 6.848 19.2072 6.4 19.5699 6.016C19.9379 5.62667 20.3645 5.32267 20.8499 5.104C21.3352 4.88533 21.8525 4.776 22.4019 4.776C23.1379 4.776 23.8072 4.96533 24.4099 5.344C25.0179 5.72267 25.5005 6.232 25.8579 6.872C26.2205 7.512 26.4019 8.22133 26.4019 9C26.4019 9.58133 26.2979 10.1253 26.0899 10.632C25.8819 11.1387 25.5939 11.5867 25.2259 11.976C24.8632 12.36 24.4392 12.6613 23.9539 12.88C23.4739 13.0987 22.9565 13.208 22.4019 13.208ZM22.4019 11.864C22.9032 11.864 23.3539 11.7333 23.7539 11.472C24.1592 11.2053 24.4765 10.856 24.7059 10.424C24.9405 9.98667 25.0579 9.512 25.0579 9C25.0579 8.47733 24.9379 7.99733 24.6979 7.56C24.4632 7.12267 24.1459 6.77333 23.7459 6.512C23.3459 6.25067 22.8979 6.12 22.4019 6.12C21.9005 6.12 21.4499 6.25333 21.0499 6.52C20.6499 6.78133 20.3325 7.13067 20.0979 7.568C19.8632 8.00533 19.7459 8.48267 19.7459 9C19.7459 9.53333 19.8659 10.0187 20.1059 10.456C20.3459 10.888 20.6685 11.232 21.0739 11.488C21.4792 11.7387 21.9219 11.864 22.4019 11.864ZM29.651 3.024V5H31.995V6.344H29.651V13H28.307V6.344H27.275V5H28.307V3.024C28.307 2.61333 28.4057 2.24267 28.603 1.912C28.8057 1.576 29.075 1.30933 29.411 1.112C29.7523 0.909333 30.1257 0.808 30.531 0.808C30.8297 0.808 31.1203 0.869333 31.403 0.992C31.6857 1.10933 31.9363 1.28533 32.155 1.52L31.195 2.472C31.1203 2.37067 31.0217 2.29333 30.899 2.24C30.7817 2.18133 30.659 2.152 30.531 2.152C30.291 2.152 30.083 2.23733 29.907 2.408C29.7363 2.57867 29.651 2.784 29.651 3.024ZM38.0835 13V3.144H36.8275L37.2035 1.8H39.4275V13H38.0835ZM45.4951 13.208C44.8285 13.208 44.2311 13.0587 43.7031 12.76C43.1751 12.456 42.7218 12.0373 42.3431 11.504C41.9645 10.9707 41.6765 10.3547 41.4791 9.656C41.2818 8.952 41.1831 8.2 41.1831 7.4C41.1831 6.6 41.2818 5.848 41.4791 5.144C41.6765 4.44 41.9645 3.824 42.3431 3.296C42.7218 2.76267 43.1751 2.34667 43.7031 2.048C44.2311 1.744 44.8285 1.592 45.4951 1.592C46.1565 1.592 46.7511 1.744 47.2791 2.048C47.8125 2.34667 48.2631 2.76267 48.6311 3.296C49.0045 3.824 49.2898 4.44 49.4871 5.144C49.6898 5.848 49.7911 6.6 49.7911 7.4C49.7911 8.2 49.6898 8.952 49.4871 9.656C49.2898 10.3547 49.0045 10.9707 48.6311 11.504C48.2631 12.0373 47.8125 12.456 47.2791 12.76C46.7511 13.0587 46.1565 13.208 45.4951 13.208ZM45.4951 11.864C46.1618 11.864 46.7191 11.6587 47.1671 11.248C47.6205 10.832 47.9591 10.2853 48.1831 9.608C48.4071 8.93067 48.5191 8.19467 48.5191 7.4C48.5191 6.56267 48.4018 5.808 48.1671 5.136C47.9378 4.45867 47.5965 3.92267 47.1431 3.528C46.6951 3.13333 46.1458 2.936 45.4951 2.936C44.9831 2.936 44.5351 3.056 44.1511 3.296C43.7725 3.536 43.4578 3.864 43.2071 4.28C42.9565 4.696 42.7671 5.17333 42.6391 5.712C42.5165 6.24533 42.4551 6.808 42.4551 7.4C42.4551 8.19467 42.5698 8.93333 42.7991 9.616C43.0285 10.2933 43.3671 10.8373 43.8151 11.248C44.2685 11.6587 44.8285 11.864 45.4951 11.864Z" fill="#999999"/>
</svg>
