<svg width="79" height="33" viewBox="0 0 79 33" fill="none" xmlns="http://www.w3.org/2000/svg">
<rect x="0.833984" y="0.5" width="77" height="32" rx="16" fill="#1A1A1A"/>
<rect x="0.833984" y="0.5" width="77" height="32" rx="16" stroke="#262626"/>
<path fill-rule="evenodd" clip-rule="evenodd" d="M18.334 23V10H18.084C17.6698 10 17.334 9.66421 17.334 9.25C17.334 8.83579 17.6698 8.5 18.084 8.5H30.584C30.9982 8.5 31.334 8.83579 31.334 9.25C31.334 9.66421 30.9982 10 30.584 10H30.334V23H30.584C30.9982 23 31.334 23.3358 31.334 23.75C31.334 24.1642 30.9982 24.5 30.584 24.5H27.084C26.6698 24.5 26.334 24.1642 26.334 23.75V21.25C26.334 20.8358 25.9982 20.5 25.584 20.5H23.084C22.6698 20.5 22.334 20.8358 22.334 21.25V23.75C22.334 24.1642 21.9982 24.5 21.584 24.5H18.084C17.6698 24.5 17.334 24.1642 17.334 23.75C17.334 23.3358 17.6698 23 18.084 23H18.334ZM21.334 12C21.334 11.7239 21.5578 11.5 21.834 11.5H22.834C23.1101 11.5 23.334 11.7239 23.334 12V13C23.334 13.2761 23.1101 13.5 22.834 13.5H21.834C21.5578 13.5 21.334 13.2761 21.334 13V12ZM21.834 15.5C21.5578 15.5 21.334 15.7239 21.334 16V17C21.334 17.2761 21.5578 17.5 21.834 17.5H22.834C23.1101 17.5 23.334 17.2761 23.334 17V16C23.334 15.7239 23.1101 15.5 22.834 15.5H21.834ZM25.334 12C25.334 11.7239 25.5578 11.5 25.834 11.5H26.834C27.1101 11.5 27.334 11.7239 27.334 12V13C27.334 13.2761 27.1101 13.5 26.834 13.5H25.834C25.5578 13.5 25.334 13.2761 25.334 13V12ZM25.834 15.5C25.5578 15.5 25.334 15.7239 25.334 16V17C25.334 17.2761 25.5578 17.5 25.834 17.5H26.834C27.1101 17.5 27.334 17.2761 27.334 17V16C27.334 15.7239 27.1101 15.5 26.834 15.5H25.834Z" fill="white"/>
<path d="M42.282 21L38.726 11.2H39.972L43.01 19.565L46.055 11.2H47.294L43.738 21H42.282ZM48.0334 14H49.2094V21H48.0334V14ZM48.6354 12.859C48.4487 12.859 48.2924 12.7983 48.1664 12.677C48.0404 12.5557 47.9774 12.404 47.9774 12.222C47.9774 12.04 48.0404 11.8883 48.1664 11.767C48.2924 11.6457 48.4464 11.585 48.6284 11.585C48.8104 11.585 48.9644 11.6457 49.0904 11.767C49.2164 11.8883 49.2794 12.04 49.2794 12.222C49.2794 12.404 49.2164 12.5557 49.0904 12.677C48.969 12.7983 48.8174 12.859 48.6354 12.859ZM50.9318 21V10.5H52.1078V21H50.9318ZM53.7892 21V10.5H54.9652V21H53.7892ZM62.2063 14H63.3823V21H62.2063L62.1573 19.817C61.9379 20.223 61.6346 20.552 61.2473 20.804C60.8646 21.056 60.4073 21.182 59.8753 21.182C59.3619 21.182 58.8813 21.0863 58.4333 20.895C57.9853 20.699 57.5886 20.4307 57.2433 20.09C56.9026 19.7447 56.6366 19.348 56.4453 18.9C56.2539 18.452 56.1583 17.969 56.1583 17.451C56.1583 16.9517 56.2516 16.4803 56.4383 16.037C56.6249 15.5937 56.8839 15.2063 57.2153 14.875C57.5513 14.539 57.9386 14.2777 58.3773 14.091C58.8159 13.8997 59.2873 13.804 59.7913 13.804C60.3419 13.804 60.8249 13.9347 61.2403 14.196C61.6556 14.4527 61.9916 14.7863 62.2483 15.197L62.2063 14ZM59.8543 20.041C60.3163 20.041 60.7153 19.929 61.0513 19.705C61.3919 19.4763 61.6533 19.1683 61.8353 18.781C62.0219 18.3937 62.1153 17.9667 62.1153 17.5C62.1153 17.024 62.0219 16.5947 61.8353 16.212C61.6486 15.8247 61.3849 15.519 61.0443 15.295C60.7083 15.0663 60.3116 14.952 59.8543 14.952C59.3923 14.952 58.9723 15.0663 58.5943 15.295C58.2163 15.5237 57.9153 15.8317 57.6913 16.219C57.4719 16.6017 57.3623 17.0287 57.3623 17.5C57.3623 17.9713 57.4766 18.4007 57.7053 18.788C57.9339 19.1707 58.2373 19.4763 58.6153 19.705C58.9933 19.929 59.4063 20.041 59.8543 20.041Z" fill="white"/>
</svg>
