<svg width="124" height="33" viewBox="0 0 124 33" fill="none" xmlns="http://www.w3.org/2000/svg">
<rect x="0.833984" y="0.5" width="122" height="32" rx="16" fill="#1A1A1A"/>
<rect x="0.833984" y="0.5" width="122" height="32" rx="16" stroke="#262626"/>
<g clip-path="url(#clip0_139_6639)">
<g clip-path="url(#clip1_139_6639)">
<path d="M24.3459 23.9597C21.3477 23.9597 18.3503 23.9597 15.352 23.9597C15.0489 23.9597 14.9088 24.0984 14.9088 24.3977C14.9088 24.4752 14.9127 24.5527 14.908 24.6295C14.9017 24.7225 14.8922 24.8155 14.8749 24.9062C14.8104 25.2372 14.4931 25.5023 14.1136 25.4984C13.7325 25.4946 13.4168 25.2116 13.3593 24.8481C13.3459 24.7628 13.3388 24.6752 13.3388 24.5891C13.338 22.8279 13.3262 21.0659 13.3427 19.3046C13.3522 18.2783 13.7317 17.3853 14.4592 16.6419C14.9009 16.1907 15.4261 15.8698 16.0268 15.6651C16.4992 15.5046 16.9874 15.4558 17.485 15.4558C22.0964 15.4574 26.7079 15.4535 31.3194 15.4589C32.6705 15.4605 33.7649 15.9969 34.5759 17.0636C34.9743 17.5884 35.212 18.1845 35.2931 18.8357C35.3207 19.055 35.3325 19.2783 35.3333 19.5C35.3364 21.2101 35.3357 22.9202 35.3349 24.6302C35.3349 24.8977 35.2679 25.1411 35.0443 25.3178C34.8081 25.5046 34.5444 25.5535 34.2633 25.4395C33.994 25.3295 33.824 25.1271 33.7854 24.838C33.7657 24.6922 33.7681 24.5426 33.7641 24.3953C33.7578 24.1574 33.6578 24.0139 33.4578 23.9698C33.4137 23.9597 33.3673 23.9605 33.3216 23.9605C30.3305 23.9605 27.3394 23.9605 24.3475 23.9605L24.3459 23.9597Z" fill="white"/>
<path d="M24.236 8.5C26.1807 8.5 28.1247 8.5 30.0686 8.5C30.7197 8.5 31.3284 8.64341 31.8535 9.03953C32.5291 9.54884 32.9235 10.2194 32.9566 11.0612C32.9849 11.7752 32.9723 12.4907 32.9755 13.2054C32.9779 13.6659 32.9755 14.1264 32.9755 14.5868C32.9755 14.6279 32.9731 14.6713 32.9621 14.7109C32.9282 14.8357 32.8597 14.8853 32.7306 14.8612C32.5897 14.8349 32.4535 14.7783 32.3125 14.7628C31.9811 14.7271 31.6488 14.7023 31.3158 14.6853C31.0937 14.6736 31.0252 14.6341 30.9937 14.4194C30.893 13.7388 30.2528 13.1264 29.434 13.1357C28.5207 13.1457 27.6074 13.138 26.6948 13.138C26.0154 13.138 25.4351 13.5364 25.2044 14.1643C25.1713 14.2543 25.1587 14.3519 25.1414 14.4465C25.1091 14.6163 25.0454 14.6798 24.8737 14.6822C24.5139 14.686 24.1533 14.686 23.7935 14.6822C23.6281 14.6806 23.5628 14.6163 23.5329 14.4279C23.4911 14.1636 23.3872 13.9279 23.2171 13.7209C22.9093 13.3457 22.5109 13.1419 22.0196 13.1395C21.0771 13.1349 20.1347 13.1372 19.1914 13.1388C18.3994 13.1395 17.7797 13.7488 17.6789 14.4178C17.6467 14.6341 17.5813 14.6721 17.3593 14.686C16.9916 14.7101 16.6239 14.7442 16.257 14.7829C16.1444 14.7946 16.0365 14.8426 15.9247 14.8612C15.8043 14.8806 15.7484 14.8403 15.7145 14.724C15.7011 14.6783 15.6948 14.6295 15.6948 14.5814C15.6941 13.4767 15.6791 12.3721 15.698 11.2674C15.7177 10.1116 16.2602 9.26202 17.3215 8.74806C17.7419 8.54574 18.1978 8.5 18.6592 8.5C20.5181 8.5 22.377 8.5 24.236 8.5Z" fill="white"/>
</g>
</g>
<path d="M38.894 21V19.957C39.2533 19.635 39.657 19.2757 40.105 18.879C40.553 18.4777 40.9987 18.06 41.442 17.626C41.89 17.1873 42.3007 16.7533 42.674 16.324C43.0473 15.8947 43.3483 15.4887 43.577 15.106C43.8057 14.7187 43.92 14.3803 43.92 14.091C43.92 13.7457 43.836 13.4307 43.668 13.146C43.5 12.8567 43.2737 12.6257 42.989 12.453C42.709 12.2803 42.3963 12.194 42.051 12.194C41.7057 12.194 41.3883 12.2803 41.099 12.453C40.8143 12.6257 40.5857 12.8567 40.413 13.146C40.245 13.4307 40.161 13.7457 40.161 14.091H38.985C38.985 13.517 39.125 12.999 39.405 12.537C39.685 12.0703 40.056 11.7017 40.518 11.431C40.98 11.1557 41.491 11.018 42.051 11.018C42.611 11.018 43.1197 11.1557 43.577 11.431C44.039 11.7063 44.4077 12.0773 44.683 12.544C44.9583 13.006 45.096 13.5217 45.096 14.091C45.096 14.4177 45.0167 14.77 44.858 15.148C44.6993 15.5213 44.4823 15.9063 44.207 16.303C43.9317 16.6997 43.619 17.101 43.269 17.507C42.919 17.9083 42.5503 18.305 42.163 18.697C41.7757 19.089 41.3907 19.4647 41.008 19.824H45.222V21H38.894ZM46.8986 16.212H51.3786V17.388H46.8986V16.212ZM53.0646 21V11.2H56.4456C56.9309 11.2 57.3719 11.3003 57.7686 11.501C58.1699 11.697 58.4873 11.984 58.7206 12.362C58.9539 12.74 59.0706 13.1927 59.0706 13.72C59.0706 14.0047 59.0216 14.28 58.9236 14.546C58.8303 14.8073 58.6996 15.0337 58.5316 15.225C58.3683 15.4117 58.1816 15.5377 57.9716 15.603C58.2656 15.6777 58.5153 15.8107 58.7206 16.002C58.9259 16.1887 59.0916 16.408 59.2176 16.66C59.3483 16.912 59.4416 17.1757 59.4976 17.451C59.5536 17.7263 59.5816 17.9923 59.5816 18.249C59.5816 18.7903 59.4579 19.2687 59.2106 19.684C58.9679 20.0947 58.6413 20.4167 58.2306 20.65C57.8199 20.8833 57.3673 21 56.8726 21H53.0646ZM54.2406 19.964H56.7676C57.0896 19.964 57.3813 19.8823 57.6426 19.719C57.9086 19.551 58.1209 19.3223 58.2796 19.033C58.4383 18.7437 58.5176 18.417 58.5176 18.053C58.5176 17.731 58.4383 17.4277 58.2796 17.143C58.1209 16.8537 57.9086 16.6203 57.6426 16.443C57.3813 16.2657 57.0896 16.177 56.7676 16.177H54.2406V19.964ZM54.2406 15.162H56.3336C56.7629 15.162 57.1293 15.036 57.4326 14.784C57.7406 14.5273 57.8946 14.1703 57.8946 13.713C57.8946 13.2183 57.7406 12.8497 57.4326 12.607C57.1293 12.3597 56.7629 12.236 56.3336 12.236H54.2406V15.162ZM63.7598 21.182C63.1158 21.182 62.5278 21.0163 61.9958 20.685C61.4685 20.3537 61.0462 19.9103 60.7288 19.355C60.4162 18.795 60.2598 18.1767 60.2598 17.5C60.2598 16.9867 60.3508 16.5083 60.5328 16.065C60.7148 15.617 60.9645 15.225 61.2818 14.889C61.6038 14.5483 61.9772 14.2823 62.4018 14.091C62.8265 13.8997 63.2792 13.804 63.7598 13.804C64.2872 13.804 64.7702 13.9113 65.2088 14.126C65.6522 14.336 66.0302 14.63 66.3428 15.008C66.6602 15.386 66.8958 15.8247 67.0498 16.324C67.2085 16.8233 67.2668 17.3577 67.2248 17.927H61.5128C61.5688 18.3237 61.6995 18.6783 61.9048 18.991C62.1102 19.299 62.3715 19.544 62.6888 19.726C63.0108 19.908 63.3678 20.0013 63.7598 20.006C64.1798 20.006 64.5602 19.8987 64.9008 19.684C65.2415 19.4647 65.5168 19.166 65.7268 18.788L66.9238 19.068C66.6438 19.6887 66.2215 20.1973 65.6568 20.594C65.0922 20.986 64.4598 21.182 63.7598 21.182ZM61.4778 17.003H66.0418C66.0045 16.611 65.8785 16.254 65.6638 15.932C65.4492 15.6053 65.1762 15.344 64.8448 15.148C64.5135 14.952 64.1518 14.854 63.7598 14.854C63.3678 14.854 63.0085 14.9497 62.6818 15.141C62.3552 15.3323 62.0845 15.5913 61.8698 15.918C61.6598 16.24 61.5292 16.6017 61.4778 17.003ZM73.9984 10.5H75.1744V21H73.9984V19.81C73.7604 20.2207 73.4408 20.552 73.0394 20.804C72.6381 21.056 72.1668 21.182 71.6254 21.182C71.1168 21.182 70.6408 21.0863 70.1974 20.895C69.7541 20.7037 69.3621 20.44 69.0214 20.104C68.6854 19.7633 68.4218 19.3713 68.2304 18.928C68.0391 18.4847 67.9434 18.0087 67.9434 17.5C67.9434 16.9913 68.0391 16.5153 68.2304 16.072C68.4218 15.624 68.6854 15.232 69.0214 14.896C69.3621 14.5553 69.7541 14.2893 70.1974 14.098C70.6408 13.9067 71.1168 13.811 71.6254 13.811C72.1668 13.811 72.6381 13.937 73.0394 14.189C73.4408 14.441 73.7604 14.7723 73.9984 15.183V10.5ZM71.6394 20.041C72.1014 20.041 72.5004 19.929 72.8364 19.705C73.1771 19.4763 73.4384 19.1683 73.6204 18.781C73.8071 18.3937 73.9004 17.9667 73.9004 17.5C73.9004 17.024 73.8071 16.5947 73.6204 16.212C73.4338 15.8247 73.1701 15.519 72.8294 15.295C72.4934 15.0663 72.0968 14.952 71.6394 14.952C71.1774 14.952 70.7574 15.0663 70.3794 15.295C70.0061 15.5237 69.7074 15.8317 69.4834 16.219C69.2594 16.6017 69.1474 17.0287 69.1474 17.5C69.1474 17.9713 69.2618 18.4007 69.4904 18.788C69.7191 19.1707 70.0224 19.4763 70.4004 19.705C70.7784 19.929 71.1914 20.041 71.6394 20.041ZM76.8537 21V14H78.0297V14.875C78.277 14.5483 78.5897 14.2893 78.9677 14.098C79.3457 13.902 79.7563 13.804 80.1997 13.804C80.4703 13.804 80.7317 13.839 80.9837 13.909L80.5077 15.085C80.3163 15.0243 80.1297 14.994 79.9477 14.994C79.5977 14.994 79.2757 15.0803 78.9817 15.253C78.6923 15.421 78.4613 15.6497 78.2887 15.939C78.116 16.2283 78.0297 16.5503 78.0297 16.905V21H76.8537ZM84.5684 21.182C83.9244 21.182 83.3364 21.0163 82.8044 20.685C82.2771 20.3537 81.8548 19.9103 81.5374 19.355C81.2248 18.795 81.0684 18.1767 81.0684 17.5C81.0684 16.9867 81.1594 16.5083 81.3414 16.065C81.5234 15.617 81.7731 15.225 82.0904 14.889C82.4124 14.5483 82.7858 14.2823 83.2104 14.091C83.6351 13.8997 84.0878 13.804 84.5684 13.804C85.2124 13.804 85.7981 13.9697 86.3254 14.301C86.8574 14.6323 87.2798 15.078 87.5924 15.638C87.9098 16.198 88.0684 16.8187 88.0684 17.5C88.0684 18.0087 87.9774 18.4847 87.7954 18.928C87.6134 19.3713 87.3614 19.7633 87.0394 20.104C86.7221 20.44 86.3511 20.7037 85.9264 20.895C85.5064 21.0863 85.0538 21.182 84.5684 21.182ZM84.5684 20.006C85.0071 20.006 85.4014 19.8917 85.7514 19.663C86.1061 19.4297 86.3838 19.124 86.5844 18.746C86.7898 18.3633 86.8924 17.948 86.8924 17.5C86.8924 17.0427 86.7874 16.6227 86.5774 16.24C86.3721 15.8573 86.0944 15.5517 85.7444 15.323C85.3944 15.0943 85.0024 14.98 84.5684 14.98C84.1298 14.98 83.7354 15.0967 83.3854 15.33C83.0354 15.5587 82.7578 15.8643 82.5524 16.247C82.3471 16.6297 82.2444 17.0473 82.2444 17.5C82.2444 17.9667 82.3494 18.3913 82.5594 18.774C82.7694 19.152 83.0518 19.453 83.4064 19.677C83.7611 19.8963 84.1484 20.006 84.5684 20.006ZM92.2657 21.182C91.6217 21.182 91.0337 21.0163 90.5017 20.685C89.9744 20.3537 89.552 19.9103 89.2347 19.355C88.922 18.795 88.7657 18.1767 88.7657 17.5C88.7657 16.9867 88.8567 16.5083 89.0387 16.065C89.2207 15.617 89.4704 15.225 89.7877 14.889C90.1097 14.5483 90.483 14.2823 90.9077 14.091C91.3324 13.8997 91.785 13.804 92.2657 13.804C92.9097 13.804 93.4954 13.9697 94.0227 14.301C94.5547 14.6323 94.977 15.078 95.2897 15.638C95.607 16.198 95.7657 16.8187 95.7657 17.5C95.7657 18.0087 95.6747 18.4847 95.4927 18.928C95.3107 19.3713 95.0587 19.7633 94.7367 20.104C94.4194 20.44 94.0484 20.7037 93.6237 20.895C93.2037 21.0863 92.751 21.182 92.2657 21.182ZM92.2657 20.006C92.7044 20.006 93.0987 19.8917 93.4487 19.663C93.8034 19.4297 94.081 19.124 94.2817 18.746C94.487 18.3633 94.5897 17.948 94.5897 17.5C94.5897 17.0427 94.4847 16.6227 94.2747 16.24C94.0694 15.8573 93.7917 15.5517 93.4417 15.323C93.0917 15.0943 92.6997 14.98 92.2657 14.98C91.827 14.98 91.4327 15.0967 91.0827 15.33C90.7327 15.5587 90.455 15.8643 90.2497 16.247C90.0444 16.6297 89.9417 17.0473 89.9417 17.5C89.9417 17.9667 90.0467 18.3913 90.2567 18.774C90.4667 19.152 90.749 19.453 91.1037 19.677C91.4584 19.8963 91.8457 20.006 92.2657 20.006ZM96.924 21V14H98.1V14.875C98.3473 14.5483 98.6577 14.2893 99.031 14.098C99.409 13.902 99.8197 13.804 100.263 13.804C100.781 13.804 101.255 13.93 101.684 14.182C102.113 14.434 102.452 14.7677 102.699 15.183C102.946 14.7677 103.282 14.434 103.707 14.182C104.136 13.93 104.608 13.804 105.121 13.804C105.648 13.804 106.127 13.9323 106.556 14.189C106.985 14.441 107.326 14.7817 107.578 15.211C107.835 15.6403 107.963 16.1187 107.963 16.646V21H106.787V16.926C106.787 16.5807 106.703 16.261 106.535 15.967C106.367 15.673 106.141 15.4373 105.856 15.26C105.571 15.0827 105.256 14.994 104.911 14.994C104.566 14.994 104.251 15.078 103.966 15.246C103.681 15.4093 103.455 15.638 103.287 15.932C103.119 16.2213 103.035 16.5527 103.035 16.926V21H101.859V16.926C101.859 16.5527 101.775 16.2213 101.607 15.932C101.439 15.638 101.21 15.4093 100.921 15.246C100.636 15.078 100.321 14.994 99.976 14.994C99.6353 14.994 99.3203 15.0827 99.031 15.26C98.7463 15.4373 98.52 15.673 98.352 15.967C98.184 16.261 98.1 16.5807 98.1 16.926V21H96.924Z" fill="white"/>
<defs>
<clipPath id="clip0_139_6639">
<rect width="20" height="20" fill="white" transform="translate(14.334 6.5)"/>
</clipPath>
<clipPath id="clip1_139_6639">
<rect width="22" height="17" fill="white" transform="translate(13.334 8.5)"/>
</clipPath>
</defs>
</svg>
