<svg width="160" height="49" viewBox="0 0 160 49" fill="none" xmlns="http://www.w3.org/2000/svg">
<path d="M24 48.5C10.7467 48.5 0 37.7533 0 24.5H24V48.5Z" fill="#703BF7"/>
<path d="M0 0.5C13.2533 0.5 24 11.2467 24 24.5H0V0.5Z" fill="#703BF7"/>
<path d="M24 48.5C37.2533 48.5 48 37.7533 48 24.5H24V48.5Z" fill="#703BF7"/>
<path d="M48 24.5C48 11.2467 37.2533 0.5 24 0.5V24.5H48Z" fill="#703BF7"/>
<path d="M156.82 35.3603V27.3536C156.82 26.4286 156.522 25.6675 155.924 25.0701C155.346 24.4727 154.595 24.174 153.67 24.174C153.053 24.174 152.504 24.3089 152.022 24.5787C151.54 24.8485 151.165 25.2242 150.895 25.706C150.625 26.1877 150.49 26.737 150.49 27.3536L149.247 26.6599C149.247 25.6 149.478 24.6654 149.941 23.8561C150.403 23.0274 151.039 22.3819 151.849 21.9194C152.677 21.4377 153.602 21.1968 154.624 21.1968C155.664 21.1968 156.589 21.4666 157.398 22.0061C158.208 22.5264 158.844 23.2105 159.306 24.0584C159.769 24.887 160 25.7542 160 26.6599V35.3603H156.82ZM147.311 35.3603V21.4858H150.49V35.3603H147.311Z" fill="white"/>
<path d="M140.566 35.3604V21.4859H143.746V35.3604H140.566ZM142.156 18.9422C141.617 18.9422 141.164 18.7591 140.798 18.393C140.451 18.0269 140.277 17.574 140.277 17.0345C140.277 16.4949 140.451 16.042 140.798 15.6759C141.164 15.3098 141.617 15.1267 142.156 15.1267C142.715 15.1267 143.168 15.3098 143.515 15.6759C143.862 16.042 144.035 16.4949 144.035 17.0345C144.035 17.574 143.862 18.0269 143.515 18.393C143.168 18.7591 142.715 18.9422 142.156 18.9422Z" fill="white"/>
<path d="M131.541 35.6494C130.154 35.6494 128.901 35.3411 127.783 34.7244C126.685 34.0885 125.808 33.2214 125.153 32.123C124.517 31.0246 124.199 29.7913 124.199 28.4231C124.199 27.0549 124.517 25.8313 125.153 24.7521C125.789 23.6537 126.647 22.7866 127.726 22.1506C128.824 21.5147 130.038 21.1968 131.368 21.1968C132.659 21.1968 133.796 21.4955 134.779 22.0928C135.781 22.6902 136.561 23.5092 137.12 24.5498C137.698 25.5904 137.987 26.7755 137.987 28.1051C137.987 28.3364 137.968 28.5773 137.929 28.8278C137.91 29.059 137.871 29.3192 137.814 29.6082H126.425V27.0067H136.166L134.981 28.0473C134.942 27.1994 134.779 26.4864 134.489 25.9083C134.2 25.3302 133.786 24.887 133.247 24.5787C132.726 24.2704 132.081 24.1162 131.31 24.1162C130.501 24.1162 129.797 24.2896 129.2 24.6365C128.602 24.9834 128.14 25.4748 127.812 26.1107C127.485 26.7273 127.321 27.4692 127.321 28.3364C127.321 29.2035 127.494 29.9647 127.841 30.6199C128.188 31.2751 128.68 31.7857 129.315 32.1519C129.951 32.4987 130.684 32.6722 131.512 32.6722C132.225 32.6722 132.88 32.5469 133.478 32.2964C134.094 32.0459 134.615 31.6797 135.039 31.198L137.062 33.2503C136.388 34.0403 135.569 34.6377 134.605 35.0424C133.642 35.4471 132.62 35.6494 131.541 35.6494Z" fill="white"/>
<path d="M116.678 35.3604V15.7048H119.857V35.3604H116.678ZM113.354 24.3764V21.4859H123.181V24.3764H113.354Z" fill="white"/>
<path d="M103.611 35.6494C102.358 35.6494 101.221 35.3314 100.2 34.6955C99.1978 34.0596 98.3981 33.2021 97.8008 32.123C97.2226 31.0246 96.9336 29.8009 96.9336 28.452C96.9336 27.0838 97.2226 25.8602 97.8008 24.781C98.3981 23.6826 99.1978 22.8155 100.2 22.1796C101.221 21.5244 102.358 21.1968 103.611 21.1968C104.671 21.1968 105.605 21.428 106.415 21.8905C107.243 22.3337 107.898 22.9504 108.38 23.7404C108.862 24.5305 109.103 25.4266 109.103 26.4286V30.4176C109.103 31.4196 108.862 32.3157 108.38 33.1057C107.918 33.8958 107.272 34.5221 106.443 34.9846C105.615 35.4278 104.671 35.6494 103.611 35.6494ZM104.131 32.6433C105.306 32.6433 106.251 32.2482 106.964 31.4581C107.696 30.6681 108.062 29.6564 108.062 28.4231C108.062 27.5945 107.898 26.8622 107.571 26.2263C107.243 25.5904 106.781 25.099 106.183 24.7521C105.605 24.386 104.921 24.2029 104.131 24.2029C103.36 24.2029 102.676 24.386 102.079 24.7521C101.501 25.099 101.038 25.5904 100.691 26.2263C100.364 26.8622 100.2 27.5945 100.2 28.4231C100.2 29.2517 100.364 29.984 100.691 30.6199C101.038 31.2558 101.501 31.7568 102.079 32.123C102.676 32.4698 103.36 32.6433 104.131 32.6433ZM107.86 35.3603V31.6316L108.409 28.2497L107.86 24.8966V21.4858H111.039V35.3603H107.86Z" fill="white"/>
<path d="M89.3807 35.3604V15.7048H92.5603V35.3604H89.3807ZM86.0566 24.3764V21.4859H95.8844V24.3764H86.0566Z" fill="white"/>
<path d="M79.3889 35.6494C78.6181 35.6494 77.8762 35.5531 77.1632 35.3603C76.4502 35.1484 75.795 34.8593 75.1976 34.4932C74.6002 34.1078 74.0799 33.6453 73.6367 33.1057L75.6601 31.0824C76.1418 31.6412 76.691 32.0652 77.3077 32.3542C77.9436 32.624 78.6566 32.7589 79.4467 32.7589C80.1597 32.7589 80.6992 32.6529 81.0654 32.4409C81.4315 32.2289 81.6146 31.9206 81.6146 31.516C81.6146 31.092 81.4411 30.7644 81.0943 30.5332C80.7474 30.3019 80.2946 30.1092 79.7357 29.9551C79.1962 29.7816 78.6181 29.6082 78.0014 29.4348C77.404 29.2613 76.8259 29.0301 76.2671 28.741C75.7275 28.4327 75.2843 28.0184 74.9375 27.4981C74.5906 26.9778 74.4172 26.3034 74.4172 25.4748C74.4172 24.5883 74.6195 23.8272 75.0242 23.1912C75.4481 22.5553 76.0359 22.0639 76.7874 21.7171C77.5582 21.3702 78.4735 21.1968 79.5334 21.1968C80.6511 21.1968 81.6338 21.3991 82.4817 21.8038C83.3489 22.1892 84.0715 22.7769 84.6496 23.567L82.6262 25.5904C82.2216 25.0893 81.7591 24.7136 81.2388 24.4631C80.7185 24.2126 80.1211 24.0873 79.4467 24.0873C78.8108 24.0873 78.3194 24.1837 77.9725 24.3764C77.6256 24.5691 77.4522 24.8485 77.4522 25.2146C77.4522 25.6 77.6256 25.8987 77.9725 26.1107C78.3194 26.3226 78.7626 26.5057 79.3021 26.6599C79.861 26.814 80.4391 26.9875 81.0365 27.1802C81.6531 27.3536 82.2312 27.6041 82.7708 27.9317C83.3296 28.24 83.7825 28.664 84.1293 29.2035C84.4762 29.7238 84.6496 30.4079 84.6496 31.2558C84.6496 32.6047 84.1775 33.6742 83.2333 34.4643C82.289 35.2544 81.0076 35.6494 79.3889 35.6494Z" fill="white"/>
<path d="M58.2344 35.3604V15.1267H61.5585V35.3604H58.2344ZM60.5179 35.3604V32.3253H71.8487V35.3604H60.5179ZM60.5179 26.4865V23.567H70.866V26.4865H60.5179ZM60.5179 18.1618V15.1267H71.7042V18.1618H60.5179Z" fill="white"/>
</svg>
